REM DIRINDEX 1\2\3,1\2\4,1\2\5,1\2\6
REM DIRNAME folder01,folder02,folder03,folder04,folder05,folder06
TITLE ""
FILE "165 165.mp3" MP3
  TRACK 01 AUDIO
    TITLE "0:"
    INDEX 01 00:00:00
  TRACK 02 AUDIO
    TITLE "3:cjc157_6030"
    INDEX 01 00:00:11
  TRACK 03 AUDIO
    TITLE "0:"
    INDEX 01 00:01:24
  TRACK 04 AUDIO
    TITLE "4:cjc157_6031"
    INDEX 01 00:01:69
  TRACK 05 AUDIO
    TITLE "0:"
    INDEX 01 00:03:17
  TRACK 06 AUDIO
    TITLE "5:cjc157_6032"
    INDEX 01 00:03:63
  TRACK 07 AUDIO
    TITLE "0:"
    INDEX 01 00:07:07
  TRACK 08 AUDIO
    TITLE "3:cjc157_6033"
    INDEX 01 00:07:52
  TRACK 09 AUDIO
    TITLE "0:"
    INDEX 01 00:09:22
  TRACK 10 AUDIO
    TITLE "4:cjc157_6034"
    INDEX 01 00:09:69
  TRACK 11 AUDIO
    TITLE "0:"
    INDEX 01 00:11:25
  TRACK 12 AUDIO
    TITLE "5:cjc157_6035"
    INDEX 01 00:11:74
  TRACK 13 AUDIO
    TITLE "0:"
    INDEX 01 00:15:66
  TRACK 14 AUDIO
    TITLE "3:cjc157_6036"
    INDEX 01 00:16:36
  TRACK 15 AUDIO
    TITLE "0:"
    INDEX 01 00:18:07
  TRACK 16 AUDIO
    TITLE "4:cjc157_6037"
    INDEX 01 00:18:46
  TRACK 17 AUDIO
    TITLE "0:"
    INDEX 01 00:20:04
  TRACK 18 AUDIO
    TITLE "5:cjc157_6038"
    INDEX 01 00:20:53
  TRACK 19 AUDIO
    TITLE "0:"
    INDEX 01 00:24:47
  TRACK 20 AUDIO
    TITLE "3:cjc157_6039"
    INDEX 01 00:25:21
  TRACK 21 AUDIO
    TITLE "0:"
    INDEX 01 00:26:32
  TRACK 22 AUDIO
    TITLE "4:cjc157_6040"
    INDEX 01 00:27:04
  TRACK 23 AUDIO
    TITLE "0:"
    INDEX 01 00:28:25
  TRACK 24 AUDIO
    TITLE "5:cjc157_6041"
    INDEX 01 00:29:07
  TRACK 25 AUDIO
    TITLE "0:"
    INDEX 01 00:31:37
  TRACK 26 AUDIO
    TITLE "3:cjc157_6042"
    INDEX 01 00:32:07
  TRACK 27 AUDIO
    TITLE "0:"
    INDEX 01 00:33:54
  TRACK 28 AUDIO
    TITLE "4:cjc157_6043"
    INDEX 01 00:34:24
  TRACK 29 AUDIO
    TITLE "0:"
    INDEX 01 00:35:53
  TRACK 30 AUDIO
    TITLE "5:cjc157_6044"
    INDEX 01 00:36:27
  TRACK 31 AUDIO
    TITLE "0:"
    INDEX 01 00:39:64
  TRACK 32 AUDIO
    TITLE "3:cjc157_6045"
    INDEX 01 00:40:32
  TRACK 33 AUDIO
    TITLE "0:"
    INDEX 01 00:41:73
  TRACK 34 AUDIO
    TITLE "4:cjc157_6046"
    INDEX 01 00:42:45
  TRACK 35 AUDIO
    TITLE "0:"
    INDEX 01 00:44:03
  TRACK 36 AUDIO
    TITLE "5:cjc157_6047"
    INDEX 01 00:44:44
  TRACK 37 AUDIO
    TITLE "0:"
    INDEX 01 00:46:74
  TRACK 38 AUDIO
    TITLE "5:cjc157_6048"
    INDEX 01 00:47:48
  TRACK 39 AUDIO
    TITLE "0:"
    INDEX 01 00:50:39
  TRACK 40 AUDIO
    TITLE "3:cjc157_6049"
    INDEX 01 00:51:16
  TRACK 41 AUDIO
    TITLE "0:"
    INDEX 01 00:52:43
  TRACK 42 AUDIO
    TITLE "4:cjc157_6050"
    INDEX 01 00:53:15
  TRACK 43 AUDIO
    TITLE "0:"
    INDEX 01 00:54:42
  TRACK 44 AUDIO
    TITLE "5:cjc157_6051"
    INDEX 01 00:55:14
  TRACK 45 AUDIO
    TITLE "0:"
    INDEX 01 00:58:60
  TRACK 46 AUDIO
    TITLE "3:cjc157_6052"
    INDEX 01 00:59:30
  TRACK 47 AUDIO
    TITLE "0:"
    INDEX 01 01:01:17
  TRACK 48 AUDIO
    TITLE "4:cjc157_6053"
    INDEX 01 01:01:64
  TRACK 49 AUDIO
    TITLE "0:"
    INDEX 01 01:03:26
  TRACK 50 AUDIO
    TITLE "5:cjc157_6054"
    INDEX 01 01:03:71
  TRACK 51 AUDIO
    TITLE "0:"
    INDEX 01 01:06:47
  TRACK 52 AUDIO
    TITLE "3:cjc157_6055"
    INDEX 01 01:07:15
  TRACK 53 AUDIO
    TITLE "0:"
    INDEX 01 01:08:36
  TRACK 54 AUDIO
    TITLE "4:cjc157_6056"
    INDEX 01 01:09:09
  TRACK 55 AUDIO
    TITLE "0:"
    INDEX 01 01:10:30
  TRACK 56 AUDIO
    TITLE "5:cjc157_6057"
    INDEX 01 01:10:73
  TRACK 57 AUDIO
    TITLE "0:"
    INDEX 01 01:14:29
  TRACK 58 AUDIO
    TITLE "3:cjc157_6058"
    INDEX 01 01:14:74
  TRACK 59 AUDIO
    TITLE "0:"
    INDEX 01 01:16:52
  TRACK 60 AUDIO
    TITLE "4:cjc157_6059"
    INDEX 01 01:17:24
  TRACK 61 AUDIO
    TITLE "0:"
    INDEX 01 01:19:09
  TRACK 62 AUDIO
    TITLE "5:cjc157_6060"
    INDEX 01 01:19:50
  TRACK 63 AUDIO
    TITLE "0:"
    INDEX 01 01:23:54
